# Blender v3.6.0 OBJ File: 'turtle.blend'
# www.blender.org
mtllib turtle_small.mtl
o Cube_Cube.001
v -0.416666 -0.500000 0.500000
v -0.416666 0.500000 0.500000
v -0.416666 -0.500000 -0.500000
v -0.416666 0.500000 -0.500000
v 0.416666 -0.500000 0.500000
v 0.416666 0.500000 0.500000
v 0.416666 -0.500000 -0.500000
v 0.416666 0.500000 -0.500000
v -0.583334 -0.166667 0.416650
v -0.583334 0.416667 0.416650
v -0.583334 -0.166667 -0.416650
v -0.583334 0.416667 -0.416650
v -0.416667 -0.166667 0.416650
v -0.416667 0.416667 0.416650
v -0.416667 -0.166667 -0.416650
v -0.416667 0.416667 -0.416650
v -0.416666 0.500000 0.000000
v 0.000000 0.500000 -0.500000
v 0.416666 0.500000 0.000000
v 0.000000 0.500000 0.500000
v 0.000000 0.500000 0.000000
vt 0.359200 0.827433
vt 0.172710 0.827433
vt 0.172710 0.734187
vt 0.172710 0.640942
vt 0.359200 0.640942
vt 0.359500 0.827828
vt 0.359499 0.640337
vt 0.453245 0.640336
vt 0.546990 0.640336
vt 0.546991 0.827827
vt 0.527882 0.831496
vt 0.527882 0.637802
vt 0.624729 0.637802
vt 0.721576 0.637802
vt 0.721576 0.831496
vt 0.000564 0.828592
vt 0.000564 0.641193
vt 0.085798 0.641193
vt 0.171032 0.641193
vt 0.171032 0.828592
vt 0.352474 1.000288
vt 0.179413 1.000288
vt 0.179413 0.827227
vt 0.352474 0.827227
vt 0.455369 0.914764
vt 0.455369 0.999936
vt 0.364685 0.999936
vt 0.364685 0.914764
vt 0.575922 0.968471
vt 0.575922 0.859545
vt 0.736899 0.859545
vt 0.736899 0.968471
vt 0.579413 0.877440
vt 0.579413 0.970086
vt 0.547649 0.970086
vt 0.547649 0.877440
vt 0.767254 0.860416
vt 0.767254 0.968892
vt 0.730062 0.968892
vt 0.730062 0.860416
vt 0.890651 0.968955
vt 0.890651 0.999344
vt 0.764034 0.999344
vt 0.764034 0.968955
vt 0.579838 0.999742
vt 0.579838 0.965060
vt 0.724339 0.965060
vt 0.724339 0.999742
vt 0.455369 0.829592
vt 0.364685 0.829592
vt 0.546053 0.829592
vt 0.546053 0.914764
vt 0.546053 0.999936
vn -1.0000 0.0000 0.0000
vn 0.0000 0.0000 -1.0000
vn 1.0000 0.0000 0.0000
vn 0.0000 0.0000 1.0000
vn 0.0000 -1.0000 0.0000
vn 0.0000 1.0000 0.0000
usemtl Material
s off
f 1/1/1 2/2/1 17/3/1 4/4/1 3/5/1
f 3/6/2 4/7/2 18/8/2 8/9/2 7/10/2
f 7/11/3 8/12/3 19/13/3 6/14/3 5/15/3
f 5/16/4 6/17/4 20/18/4 2/19/4 1/20/4
f 3/21/5 7/22/5 5/23/5 1/24/5
f 21/25/6 17/26/6 2/27/6 20/28/6
f 9/29/1 10/30/1 12/31/1 11/32/1
f 11/33/2 12/34/2 16/35/2 15/36/2
f 13/37/4 14/38/4 10/39/4 9/40/4
f 11/41/5 15/42/5 13/43/5 9/44/5
f 16/45/6 12/46/6 10/47/6 14/48/6
f 19/49/6 21/25/6 20/28/6 6/50/6
f 8/51/6 18/52/6 21/25/6 19/49/6
f 18/52/6 4/53/6 17/26/6 21/25/6
